<?xml version="1.0" encoding="UTF-8" standalone="no"?>
<!DOCTYPE svg PUBLIC "-//W3C//DTD SVG 20010904//EN"
              "http://www.w3.org/TR/2001/REC-SVG-20010904/DTD/svg10.dtd">

<svg xmlns="http://www.w3.org/2000/svg"
     width="2.22222in" height="1.44444in"
     viewBox="0 0 200 130">
  <path id="Shield"
        fill="#650000" stroke="#eeee00" stroke-width="3"
        d="M 65.19,91.74
           C 69.25,101.00 85.50,119.00 100.88,125.75
             115.75,118.38 129.50,101.75 134.98,92.19
             140.38,84.25 147.00,66.12 148.35,53.45
             148.88,49.62 150.56,23.50 150.06,18.06
             130.06,15.50 115.62,11.00 100.25,2.00
             86.50,10.50 67.25,16.25 50.25,18.00
             50.25,18.00 51.89,51.15 52.03,52.79
             52.62,64.62 58.75,79.50 65.19,91.74 Z" />
   <path id="Ribbon"
        fill="white" stroke="black" stroke-width="1"
        d="M 31.06,117.94
           C 26.69,117.56 25.00,118.64 23.00,116.62
             20.88,115.75 21.75,104.70 21.75,100.62
             12.88,100.88 12.10,98.00 11.50,92.62
             11.50,92.62 12.70,83.62 12.70,83.62
             12.70,83.62 12.88,77.50 11.25,75.00
             11.91,70.73 19.06,69.21 22.75,68.69
             39.09,66.36 54.13,70.64 69.75,74.73
             69.75,74.73 133.25,88.38 141.25,89.75
             141.12,83.66 137.83,77.22 145.12,74.38
             148.41,73.09 153.69,74.31 156.06,72.31
             157.94,69.06 154.29,63.96 156.75,60.50
             158.50,57.38 167.50,60.12 175.50,53.62
             177.12,60.75 172.88,60.12 172.50,63.62
             174.55,65.06 178.12,65.38 178.62,68.12
             178.62,70.50 178.10,78.09 179.25,80.62
             182.62,83.00 187.12,82.25 188.00,87.38
             188.88,91.12 187.61,95.67 187.68,98.62
             187.19,102.07 189.66,105.75 188.50,108.62
             186.63,114.65 172.97,114.80 167.50,114.59
             147.38,113.62 57.88,91.88 57.88,91.88
             57.88,91.87 59.12,101.62 58.25,105.00
             55.88,108.75 52.00,109.62 42.50,109.38
             42.74,111.23 44.25,122.25 41.50,122.88
             34.00,123.00 29.51,124.28 25.75,125.62
             25.38,123.12 30.25,117.63 31.06,117.94 Z" />
    <path id="Bands"
        fill="none" stroke="black" stroke-width="1"
        d="M 21.71,112.43
           C 26.36,108.82 39.36,109.21 42.45,109.30M 42.97,119.91
           C 43.27,118.84 36.64,117.49 31.14,117.87M 21.71,100.52
           C 21.71,100.52 58.49,100.61 58.49,100.61M 11.62,94.12
           C 18.38,84.69 48.38,88.69 57.81,91.75M 185.55,83.54
           C 181.68,80.48 148.43,81.73 148.36,81.67
             141.43,81.42 141.30,79.42 141.18,78.42M 141.24,89.73
           C 149.37,92.42 180.99,98.48 188.49,88.10M 154.36,73.48
           C 160.93,73.67 177.18,73.73 178.86,68.35M 172.80,63.79
           C 170.74,65.04 157.80,65.04 156.49,62.04" />
    <text x="67" y="50" 
        font-family="Verdana" font-size="20" fill="#250000" stroke="black">
        <tspan>Street</tspan>
        <tspan dy="20" dx="-60">Cred</tspan>
    </text>
</svg>
